<svg height="512pt" viewBox="0 0 512 512" width="512pt" xmlns="http://www.w3.org/2000/svg" xmlns:xlink="http://www.w3.org/1999/xlink"><linearGradient id="a" gradientTransform="matrix(1 0 0 -1 0 -15158)" gradientUnits="userSpaceOnUse" x1="0" x2="512" y1="-15414" y2="-15414"><stop offset="0" stop-color="#00f38d"/><stop offset="1" stop-color="#009eff"/></linearGradient><path d="m512 256c0 141.386719-114.613281 256-256 256s-256-114.613281-256-256 114.613281-256 256-256 256 114.613281 256 256zm0 0" fill="url(#a)"/><path d="m386.933594 232.101562h-43.476563v-100.675781c0-22.292969-18.132812-40.425781-40.421875-40.425781h-171.609375c-22.292969 0-40.425781 18.132812-40.425781 40.425781v171.609375c0 22.289063 18.132812 40.421875 40.425781 40.421875h100.675781v43.476563c0 18.785156 15.285157 34.066406 34.070313 34.066406h120.761719c18.785156 0 34.066406-15.28125 34.066406-34.066406v-120.765625c0-18.785157-15.28125-34.066407-34.066406-34.066407zm-255.507813 81.355469c-5.75 0-10.425781-4.675781-10.425781-10.421875v-171.609375c0-5.75 4.675781-10.425781 10.425781-10.425781h171.609375c5.746094 0 10.421875 4.675781 10.421875 10.425781v100.675781h-47.285156c-18.785156 0-34.070313 15.285157-34.070313 34.070313v47.285156zm259.574219 73.476563c0 2.242187-1.824219 4.066406-4.066406 4.066406h-120.761719c-2.246094 0-4.070313-1.824219-4.070313-4.066406v-120.765625c0-2.242188 1.824219-4.066407 4.070313-4.066407h120.761719c2.242187 0 4.066406 1.824219 4.066406 4.066407zm0 0" fill="#fff"/></svg>