<svg id="Layer_1" enable-background="new 0 0 24 24" height="512" viewBox="0 0 24 24" width="512" xmlns="http://www.w3.org/2000/svg"><path d="m16.25 7h-8.5c-1.517 0-2.75 1.233-2.75 2.75v4.5c0 1.517 1.233 2.75 2.75 2.75h8.5c1.517 0 2.75-1.233 2.75-2.75v-4.5c0-1.517-1.233-2.75-2.75-2.75z" fill="#42a5f5"/><g fill="#90a4ae"><path d="m1 10c-.553 0-1-.447-1-1v-4c0-1.654 1.346-3 3-3h4c.553 0 1 .447 1 1s-.447 1-1 1h-4c-.552 0-1 .449-1 1v4c0 .553-.447 1-1 1z"/><path d="m21 22h-4c-.553 0-1-.447-1-1s.447-1 1-1h4c.552 0 1-.449 1-1v-4c0-.553.447-1 1-1s1 .447 1 1v4c0 1.654-1.346 3-3 3z"/><path d="m7 22h-4c-1.654 0-3-1.346-3-3v-4c0-.553.447-1 1-1s1 .447 1 1v4c0 .551.448 1 1 1h4c.553 0 1 .447 1 1s-.447 1-1 1z"/><path d="m23 10c-.553 0-1-.447-1-1v-4c0-.551-.448-1-1-1h-4c-.553 0-1-.447-1-1s.447-1 1-1h4c1.654 0 3 1.346 3 3v4c0 .553-.447 1-1 1z"/></g><path d="m12 7h-4.25c-1.517 0-2.75 1.233-2.75 2.75v4.5c0 1.517 1.233 2.75 2.75 2.75h4.25z" fill="#3990d5"/><path d="m7 2h-4c-1.654 0-3 1.346-3 3v4c0 .553.447 1 1 1s1-.447 1-1v-4c0-.551.448-1 1-1h4c.553 0 1-.447 1-1s-.447-1-1-1z" fill="#7d8f97"/><path d="m1 14c-.553 0-1 .447-1 1v4c0 1.654 1.346 3 3 3h4c.553 0 1-.447 1-1s-.447-1-1-1h-4c-.552 0-1-.449-1-1v-4c0-.553-.447-1-1-1z" fill="#7d8f97"/></svg>