<?xml version="1.0" encoding="iso-8859-1"?>
<!-- Generator: Adobe Illustrator 19.0.0, SVG Export Plug-In . SVG Version: 6.00 Build 0)  -->
<svg version="1.1" id="Capa_1" xmlns="http://www.w3.org/2000/svg" xmlns:xlink="http://www.w3.org/1999/xlink" x="0px" y="0px"
	 viewBox="0 0 464 464" style="enable-background:new 0 0 464 464;" xml:space="preserve">
<rect y="136" style="fill:#F6DDCB;" width="336" height="328"/>
<polygon style="fill:#EA7E73;" points="400,64 400,400 336,400 336,136 64,136 64,64 "/>
<g>
	<polygon style="fill:#2A60A0;" points="464,0 464,336 400,336 400,64 128,64 128,0 	"/>
	<rect x="32" y="168" style="fill:#2A60A0;" width="64" height="64"/>
</g>
<rect x="235.645" y="363.694" transform="matrix(-0.7071 0.7071 -0.7071 -0.7071 727.7148 482.519)" style="fill:#61CCCC;" width="56.559" height="56.559"/>
<polygon style="fill:#EA7E73;" points="224,232 304,232 264,168 "/>
<circle style="fill:#EFC062;" cx="64" cy="392" r="32"/>
<g>
	<path style="fill:#2A60A0;" d="M197.656,194.344l-32-32l-11.312,11.312L172.688,192H120v16h52.688l-18.344,18.344l11.312,11.312
		l32-32L197.6,205.6c0.728-0.728,1.376-1.552,1.784-2.544C200.632,200.072,199.944,196.632,197.656,194.344z"/>
	<path style="fill:#2A60A0;" d="M197.656,386.344l-32-32l-11.312,11.312L172.688,384H120v16h52.688l-18.344,18.344l11.312,11.312
		l32-32L197.6,397.6c0.728-0.728,1.376-1.552,1.784-2.544C200.632,392.072,199.944,388.632,197.656,386.344z"/>
	<path style="fill:#2A60A0;" d="M256,248c0,13.232-10.768,24-24,24H96c-22.056,0-40,17.944-40,40v4.688l-18.344-18.344
		l-11.312,11.312l32,32L58.4,341.6c0.728,0.728,1.552,1.376,2.544,1.784C61.928,343.8,62.968,344,64,344
		c2.08,0,4.128-0.816,5.656-2.344l32-32l-11.312-11.312L72,316.688V312c0-13.232,10.768-24,24-24h136c22.056,0,40-17.944,40-40H256z
		"/>
</g>
<g>
</g>
<g>
</g>
<g>
</g>
<g>
</g>
<g>
</g>
<g>
</g>
<g>
</g>
<g>
</g>
<g>
</g>
<g>
</g>
<g>
</g>
<g>
</g>
<g>
</g>
<g>
</g>
<g>
</g>
</svg>
