<svg id="Capa_1" enable-background="new 0 0 512 512" height="512" viewBox="0 0 512 512" width="512" xmlns="http://www.w3.org/2000/svg"><g><path d="m271 0h-30c0 35.64-28.99 64.63-64.63 64.63v30c35.64 0 64.63 28.99 64.63 64.63h30c0-35.64 28.99-64.63 64.63-64.63v-30c-35.64 0-64.63-28.99-64.63-64.63z" fill="#ffde46"/><path d="m335.63 64.63v30c-35.64 0-64.63 28.99-64.63 64.63h-15v-159.26h15c0 35.64 28.99 64.63 64.63 64.63z" fill="#febf01"/><path d="m112.952 141.941h-30c0 35.64-28.99 64.63-64.63 64.63v30c35.64 0 64.63 28.99 64.63 64.63h30c0-35.64 28.99-64.63 64.63-64.63v-30c-35.64 0-64.63-28.99-64.63-64.63z" fill="#ffde46"/><path d="m177.582 206.571v30c-35.64 0-64.63 28.99-64.63 64.63h-15v-159.26h15c0 35.64 28.99 64.63 64.63 64.63z" fill="#febf01"/><path d="m429.048 141.941h-30c0 35.64-28.99 64.63-64.63 64.63v30c35.64 0 64.63 28.99 64.63 64.63h30c0-35.64 28.99-64.63 64.63-64.63v-30c-35.64 0-64.63-28.99-64.63-64.63z" fill="#ffde46"/><path d="m493.678 206.571v30c-35.64 0-64.63 28.99-64.63 64.63h-15v-159.26h15c0 35.64 28.99 64.63 64.63 64.63z" fill="#febf01"/><path d="m305.43 184.66v105.77l-49.43 14-49.43-14v-105.77z" fill="#f5fbff"/><path d="m305.43 184.66v105.77l-49.43 14v-119.77z" fill="#cbe1fa"/><path d="m206.57 290.43h98.86v221.57h-98.86z" fill="#1e608b"/><path d="m256 290.43h49.43v221.57h-49.43z" fill="#1e3f6b"/></g></svg>